<mxGraphModel dx="1878" dy="1714" grid="1" gridSize="10" guides="1" tooltips="1" connect="1" arrows="1" fold="1" page="0" pageScale="1" pageWidth="827" pageHeight="1169" math="0" shadow="0"><root><mxCell id="0"/><mxCell id="1" parent="0"/><mxCell id="154" value="" style="whiteSpace=wrap;html=1;strokeColor=none;" parent="1" vertex="1"><mxGeometry x="-880" y="-780" width="1090" height="820" as="geometry"/></mxCell><mxCell id="205" value="" style="rounded=0;whiteSpace=wrap;html=1;strokeWidth=1;" parent="1" vertex="1"><mxGeometry x="-820" y="-750" width="340" height="150" as="geometry"/></mxCell><mxCell id="195" value="&lt;font style=&quot;font-size: 17px&quot;&gt;Person person = new Person()&lt;/font&gt;" style="rounded=0;whiteSpace=wrap;html=1;strokeColor=none;" parent="1" vertex="1"><mxGeometry x="-780" y="-690" width="280" height="60" as="geometry"/></mxCell><mxCell id="198" style="edgeStyle=none;html=1;exitX=0;exitY=0;exitDx=0;exitDy=0;entryX=0.5;entryY=1;entryDx=0;entryDy=0;endArrow=none;endFill=0;" parent="1" source="196" target="197" edge="1"><mxGeometry relative="1" as="geometry"/></mxCell><mxCell id="196" value="" style="ellipse;whiteSpace=wrap;html=1;fillColor=none;" parent="1" vertex="1"><mxGeometry x="-760" y="-680" width="60" height="40" as="geometry"/></mxCell><mxCell id="197" value="&lt;font style=&quot;font-size: 15px&quot;&gt;方法区&lt;/font&gt;" style="text;html=1;strokeColor=none;fillColor=none;align=center;verticalAlign=middle;whiteSpace=wrap;rounded=0;strokeWidth=3;" parent="1" vertex="1"><mxGeometry x="-810" y="-730" width="60" height="20" as="geometry"/></mxCell><mxCell id="201" style="edgeStyle=none;html=1;exitX=0.5;exitY=0;exitDx=0;exitDy=0;entryX=0.5;entryY=1;entryDx=0;entryDy=0;endArrow=none;endFill=0;strokeColor=#FFB570;" parent="1" source="199" target="200" edge="1"><mxGeometry relative="1" as="geometry"/></mxCell><mxCell id="199" value="" style="ellipse;whiteSpace=wrap;html=1;fillColor=none;strokeColor=#FFB570;" parent="1" vertex="1"><mxGeometry x="-700" y="-680" width="60" height="40" as="geometry"/></mxCell><mxCell id="200" value="&lt;span style=&quot;font-size: 15px&quot;&gt;&lt;font color=&quot;#ffb570&quot;&gt;Java栈&lt;/font&gt;&lt;/span&gt;" style="text;html=1;strokeColor=none;fillColor=none;align=center;verticalAlign=middle;whiteSpace=wrap;rounded=0;strokeWidth=3;" parent="1" vertex="1"><mxGeometry x="-680" y="-730" width="60" height="20" as="geometry"/></mxCell><mxCell id="204" style="edgeStyle=none;html=1;exitX=0.5;exitY=0;exitDx=0;exitDy=0;entryX=0.5;entryY=1;entryDx=0;entryDy=0;endArrow=none;endFill=0;strokeColor=#EA6B66;" parent="1" source="202" target="203" edge="1"><mxGeometry relative="1" as="geometry"/></mxCell><mxCell id="202" value="" style="ellipse;whiteSpace=wrap;html=1;fillColor=none;strokeColor=#EA6B66;" parent="1" vertex="1"><mxGeometry x="-630" y="-680" width="110" height="40" as="geometry"/></mxCell><mxCell id="203" value="&lt;span style=&quot;font-size: 15px&quot;&gt;&lt;font color=&quot;#ea6b66&quot;&gt;Java堆&lt;/font&gt;&lt;/span&gt;" style="text;html=1;strokeColor=none;fillColor=none;align=center;verticalAlign=middle;whiteSpace=wrap;rounded=0;strokeWidth=3;" parent="1" vertex="1"><mxGeometry x="-550" y="-720" width="60" height="20" as="geometry"/></mxCell><mxCell id="206" value="Java栈&lt;br&gt;本地变量表" style="rounded=0;whiteSpace=wrap;html=1;strokeColor=#000000;strokeWidth=1;fillColor=#ffffff;" parent="1" vertex="1"><mxGeometry x="-540" y="-530" width="120" height="60" as="geometry"/></mxCell><mxCell id="207" value="int" style="rounded=0;whiteSpace=wrap;html=1;strokeColor=#000000;strokeWidth=1;fillColor=#ffffff;" parent="1" vertex="1"><mxGeometry x="-540" y="-470" width="120" height="40" as="geometry"/></mxCell><mxCell id="208" value="short" style="rounded=0;whiteSpace=wrap;html=1;strokeColor=#000000;strokeWidth=1;fillColor=#ffffff;" parent="1" vertex="1"><mxGeometry x="-540" y="-430" width="120" height="40" as="geometry"/></mxCell><mxCell id="209" value="reference" style="rounded=0;whiteSpace=wrap;html=1;strokeColor=#A50040;strokeWidth=1;fillColor=#d80073;fontColor=#ffffff;" parent="1" vertex="1"><mxGeometry x="-540" y="-390" width="120" height="40" as="geometry"/></mxCell><mxCell id="210" value="double" style="rounded=0;whiteSpace=wrap;html=1;strokeColor=#000000;strokeWidth=1;fillColor=#ffffff;" parent="1" vertex="1"><mxGeometry x="-540" y="-350" width="120" height="70" as="geometry"/></mxCell><mxCell id="211" style="edgeStyle=none;html=1;exitX=0;exitY=0.5;exitDx=0;exitDy=0;entryX=1;entryY=0.5;entryDx=0;entryDy=0;endArrow=none;endFill=0;dashed=1;" parent="1" source="210" target="210" edge="1"><mxGeometry relative="1" as="geometry"/></mxCell><mxCell id="212" value="float" style="rounded=0;whiteSpace=wrap;html=1;strokeColor=#000000;strokeWidth=1;fillColor=#ffffff;" parent="1" vertex="1"><mxGeometry x="-540" y="-280" width="120" height="40" as="geometry"/></mxCell><mxCell id="213" value="... ..." style="rounded=0;whiteSpace=wrap;html=1;strokeColor=#000000;strokeWidth=1;fillColor=#ffffff;" parent="1" vertex="1"><mxGeometry x="-540" y="-240" width="120" height="70" as="geometry"/></mxCell><mxCell id="214" value="" style="rounded=0;whiteSpace=wrap;html=1;strokeColor=#6c8ebf;strokeWidth=1;fillColor=#dae8fc;" parent="1" vertex="1"><mxGeometry x="-330" y="-550" width="450" height="230" as="geometry"/></mxCell><mxCell id="215" value="Java堆" style="text;html=1;strokeColor=none;fillColor=none;align=center;verticalAlign=middle;whiteSpace=wrap;rounded=0;" parent="1" vertex="1"><mxGeometry x="-125" y="-570" width="45" height="20" as="geometry"/></mxCell><mxCell id="216" value="" style="ellipse;whiteSpace=wrap;html=1;strokeColor=#10739e;strokeWidth=1;fillColor=#b1ddf0;" parent="1" vertex="1"><mxGeometry x="-290" y="-495" width="180" height="120" as="geometry"/></mxCell><mxCell id="217" value="到对象类型数据的指针" style="rounded=0;whiteSpace=wrap;html=1;strokeColor=#9673a6;strokeWidth=1;fillColor=#e1d5e7;" parent="1" vertex="1"><mxGeometry x="-270" y="-470" width="140" height="40" as="geometry"/></mxCell><mxCell id="218" value="对象实例数据&lt;br&gt;" style="text;html=1;strokeColor=none;fillColor=none;align=center;verticalAlign=middle;whiteSpace=wrap;rounded=0;" parent="1" vertex="1"><mxGeometry x="-245" y="-410" width="90" height="20" as="geometry"/></mxCell><mxCell id="219" value="" style="rounded=0;whiteSpace=wrap;html=1;strokeColor=#666666;strokeWidth=1;fillColor=#f5f5f5;fontColor=#333333;" parent="1" vertex="1"><mxGeometry x="-330" y="-260" width="450" height="230" as="geometry"/></mxCell><mxCell id="220" value="方法区" style="text;html=1;strokeColor=none;fillColor=none;align=center;verticalAlign=middle;whiteSpace=wrap;rounded=0;" parent="1" vertex="1"><mxGeometry x="-270" y="-220" width="45" height="20" as="geometry"/></mxCell><mxCell id="221" value="对象类型数据" style="ellipse;whiteSpace=wrap;html=1;strokeColor=#006EAF;strokeWidth=1;fillColor=#1ba1e2;fontColor=#ffffff;" parent="1" vertex="1"><mxGeometry x="-110" y="-190" width="180" height="120" as="geometry"/></mxCell><mxCell id="224" style="edgeStyle=none;html=1;exitX=1;exitY=0.5;exitDx=0;exitDy=0;entryX=0.5;entryY=0;entryDx=0;entryDy=0;endArrow=classic;endFill=1;rounded=0;startArrow=none;startFill=0;" parent="1" source="217" target="221" edge="1"><mxGeometry relative="1" as="geometry"><Array as="points"><mxPoint x="-20" y="-450"/></Array></mxGeometry></mxCell><mxCell id="225" style="edgeStyle=none;rounded=0;html=1;exitX=1;exitY=0.5;exitDx=0;exitDy=0;entryX=0;entryY=0.5;entryDx=0;entryDy=0;startArrow=none;startFill=0;endArrow=classic;endFill=1;strokeColor=#000000;" parent="1" source="209" target="216" edge="1"><mxGeometry relative="1" as="geometry"/></mxCell></root></mxGraphModel>